<?xml version="1.0" encoding="UTF-8" standalone="no"?>
<!DOCTYPE svg PUBLIC "-//W3C//DTD SVG 1.1//EN" "http://www.w3.org/Graphics/SVG/1.1/DTD/svg11.dtd">
<svg width="100%" height="100%" viewBox="0 0 1080 1350" version="1.1" xmlns="http://www.w3.org/2000/svg" xmlns:xlink="http://www.w3.org/1999/xlink" xml:space="preserve" xmlns:serif="http://www.serif.com/" style="fill-rule:evenodd;clip-rule:evenodd;stroke-linecap:round;stroke-linejoin:round;stroke-miterlimit:1.5;">
    <g>
        <g transform="matrix(1,0,0,1,0,-2.855689)">
            <g transform="matrix(0.512094,0,0,0.632998,384.979326,259.376998)">
                <path d="M269.904,641.863C309.439,641.829 345.147,641.541 377.028,640.998L376.739,620.456L376.449,558.25L375.871,504.146C375.678,496.045 374.52,491.03 372.399,489.101C369.312,485.822 361.79,483.315 349.831,481.579L310.772,472.899L310.772,455.829C355.328,457.95 387.54,459.011 407.407,459.011C429.203,459.011 459.389,457.95 497.966,455.829L497.966,472.899C466.14,479.457 448.202,483.604 444.152,485.34C440.101,487.076 437.401,489.005 436.05,491.127C433.929,494.599 432.771,505.207 432.579,522.953C432.193,551.885 432,601.456 432,671.666L433.157,808.807L433.157,816.908C433.157,825.974 434.797,831.76 438.076,834.268C443.477,838.318 463.44,843.333 497.966,849.313L497.966,866.383C445.116,864.261 411.554,863.201 397.281,863.201C373.556,863.201 344.72,864.261 310.772,866.383L310.772,849.313L363.719,837.451C366.998,836.1 369.505,834.171 371.241,831.664C373.942,827.613 375.388,819.994 375.581,808.807L377.028,672.824C331.955,671.967 296.247,671.491 269.904,671.395L269.904,641.863Z" style="fill:rgb(197,106,61);"/>
            </g>
            <g transform="matrix(0.512094,0,0,0.632998,310.847412,259.376998)">
                <path d="M269.904,671.395C266.598,671.383 263.44,671.377 260.429,671.377C231.304,671.377 200.539,671.859 168.134,672.824L169.002,812.568C169.002,822.598 169.966,828.964 171.895,831.664C173.824,834.364 178.839,836.872 186.94,839.186C188.869,839.765 204.686,843.141 234.39,849.313L234.39,866.383C187.326,864.261 154.053,863.201 134.572,863.201C110.462,863.201 81.24,864.261 46.906,866.383L46.906,849.313C67.738,844.684 83.265,841.405 93.488,839.476C101.203,838.126 106.122,836.197 108.243,833.689C111.137,830.41 112.583,823.563 112.583,813.147C113.162,776.306 113.451,723.649 113.451,655.175L112.294,511.958L112.294,502.7C112.294,495.949 111.185,491.271 108.967,488.667C106.749,486.063 102.071,483.893 94.934,482.157L46.906,472.899L46.906,455.829C85.869,457.95 118.37,459.011 144.409,459.011C171.799,459.011 201.792,457.95 234.39,455.829L234.39,472.899L185.783,482.447C179.611,483.99 175.367,486.16 173.053,488.957C170.738,491.753 169.581,496.72 169.581,503.857L168.134,640.998C197.838,641.576 229.182,641.866 262.165,641.866C264.761,641.866 267.34,641.865 269.904,641.863L269.904,671.395Z" style="fill:rgb(197,106,61);fill-opacity:1;"/>
            </g>
            <g transform="matrix(0.975534,0,0,0.637007,200.721231,253.171434)">
                <rect x="248.671" y="647.461" width="87.087" height="29.485" style="fill:rgb(197,106,61);"/>
            </g>
            <g transform="matrix(0.512094,0,0,0.632998,490.126798,259.376998)">
                <path d="M269.904,641.863C309.439,641.829 345.147,641.541 377.028,640.998L376.739,620.456L376.449,558.25L375.871,504.146C375.678,496.045 374.52,491.03 372.399,489.101C369.312,485.822 361.79,483.315 349.831,481.579L310.772,472.899L310.772,455.829C355.328,457.95 387.54,459.011 407.407,459.011C429.203,459.011 459.389,457.95 497.966,455.829L497.966,472.899C466.14,479.457 448.202,483.604 444.152,485.34C440.101,487.076 437.401,489.005 436.05,491.127C433.929,494.599 432.771,505.207 432.579,522.953C432.193,551.885 432,601.456 432,671.666L433.157,808.807L433.157,816.908C433.157,825.974 434.797,831.76 438.076,834.268C443.477,838.318 463.44,843.333 497.966,849.313L497.966,866.383C445.116,864.261 411.554,863.201 397.281,863.201C373.556,863.201 344.72,864.261 310.772,866.383L310.772,849.313L363.719,837.451C366.998,836.1 369.505,834.171 371.241,831.664C373.942,827.613 375.388,819.994 375.581,808.807L377.028,672.824C331.955,671.967 296.247,671.491 269.904,671.395L269.904,641.863Z" style="fill:rgb(47,47,47);"/>
            </g>
            <g transform="matrix(0.512094,0,0,0.525224,263.469405,326.661151)">
                <path d="M411.08,634.275L410.141,490.639L410.141,479.194C410.141,470.849 409.032,465.068 406.814,461.849C404.595,458.63 399.918,455.948 392.781,453.802L344.753,442.358L344.753,421.257C383.716,423.88 416.217,425.191 442.256,425.191C469.646,425.191 499.639,423.88 532.237,421.257L532.237,442.358L483.63,454.16C477.457,456.067 473.214,458.749 470.899,462.207C468.585,465.664 467.427,471.803 467.427,480.625L466.117,634.171L411.08,634.275Z" style="fill:rgb(47,47,47);"/>
            </g>
            <g transform="matrix(-0.507741,0,0,-0.554142,711.069671,1041.232036)">
                <path d="M411.08,634.275L410.141,490.639L410.141,479.194C410.141,470.849 409.032,465.068 406.814,461.849C404.595,458.63 399.918,455.948 392.781,453.802L344.753,442.358L344.753,421.257C383.716,423.88 416.217,425.191 442.256,425.191C469.646,425.191 499.639,423.88 532.237,421.257L532.237,442.358L483.63,454.16C477.457,456.067 473.214,458.749 470.899,462.207C468.585,465.664 467.427,471.803 467.427,480.625L466.117,634.171L411.08,634.275Z" style="fill:rgb(47,47,47);"/>
            </g>
            <g transform="matrix(0.512094,0,0,0.525224,367.429722,326.661151)">
                <path d="M411.08,634.275L410.141,490.639L410.141,479.194C410.141,470.849 409.032,465.068 406.814,461.849C404.595,458.63 399.918,455.948 392.781,453.802L344.753,442.358L344.753,421.257C383.716,423.88 416.217,425.191 442.256,425.191C469.646,425.191 499.639,423.88 532.237,421.257L532.237,442.358L483.63,454.16C477.457,456.067 473.214,458.749 470.899,462.207C468.585,465.664 467.427,471.803 467.427,480.625L466.117,634.171L411.08,634.275Z" style="fill:rgb(197,106,61);"/>
            </g>
            <g transform="matrix(-0.507741,0,0,-0.554142,815.029989,1041.232036)">
                <path d="M411.08,634.275L410.141,490.639L410.141,479.194C410.141,470.849 409.032,465.068 406.814,461.849C404.595,458.63 399.918,455.948 392.781,453.802L344.753,442.358L344.753,421.257C383.716,423.88 416.217,425.191 442.256,425.191C469.646,425.191 499.639,423.88 532.237,421.257L532.237,442.358L483.63,454.16C477.457,456.067 473.214,458.749 470.899,462.207C468.585,465.664 467.427,471.803 467.427,480.625L466.117,634.171L411.08,634.275Z" style="fill:rgb(197,106,61);"/>
            </g>
            <g transform="matrix(0.268122,0,0,0.637007,543.387767,253.171434)">
                <rect x="248.671" y="647.461" width="87.087" height="29.485" style="fill:rgb(47,47,47);"/>
            </g>
        </g>
        <g transform="matrix(0.925183,0,0,0.906051,66.222628,55.372251)">
            <circle cx="512.091" cy="683.877" r="278.563" style="fill:rgb(47,47,47);fill-opacity:0;stroke:rgb(47,47,47);stroke-width:10.05px;"/>
        </g>
    </g>
</svg>
